<?xml version="1.0" standalone="no"?>
<!DOCTYPE svg PUBLIC "-//W3C//DTD SVG 20010904//EN"
 "http://www.w3.org/TR/2001/REC-SVG-20010904/DTD/svg10.dtd">
<svg version="1.0" xmlns="http://www.w3.org/2000/svg"
 width="1024.000000pt" height="1024.000000pt" viewBox="0 0 1024.000000 1024.000000"
 preserveAspectRatio="xMidYMid meet">
<metadata>
Created by potrace 1.11, written by Peter Selinger 2001-2013
</metadata>
<g transform="translate(0.000000,1024.000000) scale(0.100000,-0.100000)"
fill="#000000" stroke="none">
<path d="M858 10225 c-375 -63 -675 -320 -804 -687 -57 -162 -54 114 -54
-4423 0 -3649 2 -4181 15 -4255 39 -224 138 -411 297 -566 141 -137 313 -231
501 -271 78 -17 297 -18 4307 -18 4010 0 4229 1 4307 18 413 89 730 424 798
842 22 136 22 8374 0 8510 -37 227 -141 423 -311 586 -146 140 -330 230 -539
264 -78 13 -643 15 -4265 14 -3363 -1 -4190 -4 -4252 -14z m4635 -1751 c927
-79 1622 -445 1985 -1047 278 -461 329 -1088 136 -1667 -154 -463 -505 -920
-914 -1192 -357 -237 -794 -352 -1265 -333 -378 15 -628 80 -740 192 -58 57
-78 105 -83 189 -4 68 -3 73 27 107 45 51 95 66 441 127 207 37 411 88 516
129 166 64 381 237 481 386 155 230 236 505 264 892 33 466 -62 781 -308 1020
-149 144 -335 244 -574 307 -371 99 -941 93 -1379 -14 -306 -75 -479 -144
-963 -387 -184 -91 -259 -119 -363 -134 -108 -15 -169 -6 -207 32 -27 27 -29
34 -24 79 13 112 179 363 354 537 135 133 394 304 648 428 435 212 842 326
1275 358 136 10 531 5 693 -9z m-1000 -1285 c45 -35 59 -103 65 -308 12 -475
-47 -872 -332 -2227 -124 -590 -120 -552 -170 -1516 -25 -469 -50 -889 -55
-933 -14 -104 -49 -171 -126 -244 -146 -136 -417 -209 -795 -214 -140 -2 -207
9 -245 41 -107 89 -130 226 -130 782 0 399 9 523 60 865 138 913 475 2082 805
2793 252 545 554 910 805 972 54 14 92 10 118 -11z"/>
</g>
</svg>
